REM MD5 fdf0b9bbee05960fe40e3976714633d9
FILE "Dengeki PlayStation D10 (Japan).bin" BINARY
  TRACK 01 MODE2/2352
    INDEX 01 00:00:00
  TRACK 02 AUDIO
    INDEX 00 55:50:21
    INDEX 01 55:52:21
  TRACK 03 AUDIO
    INDEX 00 58:23:22
    INDEX 01 58:25:22
  TRACK 04 AUDIO
    INDEX 00 59:16:47
    INDEX 01 59:18:47
  TRACK 05 AUDIO
    INDEX 00 61:47:40
    INDEX 01 61:49:40
REM LEADOUT 65:19:40
